<svg width="118" height="27" viewBox="0 0 118 27" fill="none" xmlns="http://www.w3.org/2000/svg">
<path d="M19.152 26H22.104L11.34 0.835998L0.288 26H3.24L6.12 19.232H16.344L19.152 26ZM7.164 16.712L11.268 7.1L15.3 16.712H7.164ZM25.4905 1.988V26H34.7785V23.48H28.1545V1.988H25.4905ZM41.0569 1.988H38.3929V17.432C38.3929 19.448 38.6089 21.392 39.9049 23.192C41.3449 25.172 43.8649 26.432 46.9249 26.432C49.9849 26.432 52.5049 25.172 53.9449 23.192C55.2409 21.392 55.4569 19.448 55.4569 17.432V1.988H52.7929V16.712C52.7929 18.728 52.7929 20.924 50.8849 22.544C49.9129 23.372 48.2569 23.912 46.9249 23.912C45.5929 23.912 43.9369 23.372 42.9649 22.544C41.0569 20.924 41.0569 18.728 41.0569 16.712V1.988ZM64.3303 1.988H61.6663V26H64.3303V15.668L65.0143 14.984L74.8423 26H78.5143L66.9223 13.184L78.1543 1.988H74.5543L64.3303 12.284V1.988ZM98.1833 26H101.135L90.3713 0.835998L79.3193 26H82.2713L85.1513 19.232H95.3753L98.1833 26ZM86.1953 16.712L90.2993 7.1L94.3313 16.712H86.1953ZM116.987 5.336C116.447 4.292 115.619 3.32 114.647 2.672C113.459 1.88 112.271 1.592 110.795 1.592C106.907 1.592 104.063 4.076 104.063 7.784C104.063 9.584 104.675 10.7 105.719 11.708C106.799 12.752 107.987 13.256 108.923 13.688L111.083 14.696C112.343 15.272 113.279 15.704 113.963 16.352C114.827 17.144 115.151 18.08 115.151 19.16C115.151 21.572 113.603 23.912 110.327 23.912C109.103 23.912 107.915 23.624 106.871 22.58C106.187 21.86 105.611 20.78 105.431 19.52L102.839 20.24C103.163 21.68 103.883 23.336 105.071 24.488C106.727 26.108 108.707 26.432 110.291 26.432C114.611 26.432 117.887 23.48 117.887 19.052C117.887 17.324 117.383 15.92 116.159 14.696C115.151 13.688 113.855 13.04 112.451 12.428L110.147 11.42C109.247 11.024 108.347 10.628 107.627 9.908C106.979 9.296 106.727 8.756 106.727 7.82C106.727 5.588 108.383 4.112 110.759 4.112C112.127 4.112 112.991 4.58 113.459 4.94C113.999 5.372 114.539 6.092 114.863 6.74L116.987 5.336Z" fill="white"/>
</svg>
